<?xml version="1.0" encoding="utf-8"?>
<!-- Generator: Adobe Illustrator 16.0.0, SVG Export Plug-In . SVG Version: 6.00 Build 0)  -->
<!DOCTYPE svg PUBLIC "-//W3C//DTD SVG 1.1//EN" "http://www.w3.org/Graphics/SVG/1.1/DTD/svg11.dtd">
<svg version="1.1" id="Layer_1" xmlns="http://www.w3.org/2000/svg" xmlns:xlink="http://www.w3.org/1999/xlink" x="0px" y="0px"
	 width="100px" height="100px" viewBox="0 0 100 100" enable-background="new 0 0 100 100" xml:space="preserve">
<g id="Captions">
</g>
<g id="Your_Icon">
	<g>
		<g>
			<path fill="#FFFFFF" d="M50,95C25.187,95,5,74.812,5,50C5,25.187,25.187,5,50,5c24.812,0,45,20.187,45,45
				C95,74.812,74.812,95,50,95z M50,15c-19.299,0-35,15.701-35,35s15.701,35,35,35s35-15.701,35-35S69.299,15,50,15z"/>
		</g>
		<polygon fill="#FFFFFF" points="73.535,33.536 66.465,26.464 50,42.929 33.536,26.464 26.464,33.536 42.929,50 26.464,66.465 
			33.536,73.535 50,57.07 66.465,73.535 73.535,66.465 57.07,50 		"/>
	</g>
</g>
</svg>
