<?xml version="1.0" encoding="utf-8"?>
<!-- Generator: Adobe Illustrator 16.0.0, SVG Export Plug-In . SVG Version: 6.00 Build 0)  -->
<!DOCTYPE svg PUBLIC "-//W3C//DTD SVG 1.1//EN" "http://www.w3.org/Graphics/SVG/1.1/DTD/svg11.dtd">
<svg version="1.1" id="Layer_1" xmlns="http://www.w3.org/2000/svg" xmlns:xlink="http://www.w3.org/1999/xlink" x="0px" y="0px"
	 width="88px" height="88px" viewBox="0 0 88 88" enable-background="new 0 0 88 88" xml:space="preserve">
<g>
	<path fill="#FFFFFF" d="M45.211,83.754c-22.111,0-40.1-17.988-40.1-40.1s17.989-40.1,40.1-40.1c22.111,0,40.1,17.989,40.1,40.1
		C85.311,65.766,67.322,83.754,45.211,83.754z M45.211,11.754c-17.59,0-31.9,14.31-31.9,31.9c0,17.59,14.31,31.901,31.9,31.901
		s31.9-14.312,31.9-31.901C77.111,26.065,62.801,11.754,45.211,11.754z"/>
</g>
<g>
	<path fill="#FFFFFF" d="M65.023,59.838H25.397c-1.657,0-3-1.343-3-3V30.47c0-1.657,1.343-3,3-3h39.626c1.658,0,3,1.343,3,3v26.368
		C68.023,58.495,66.682,59.838,65.023,59.838z M28.397,53.838h33.626V33.47H28.397V53.838z"/>
</g>
<g>
	<path fill="#FFFFFF" d="M45.211,49.2c-0.579,0-1.159-0.167-1.662-0.502L23.735,35.513c-1.379-0.918-1.753-2.78-0.835-4.16
		c0.918-1.378,2.78-1.752,4.16-0.835l18.152,12.079l18.151-12.079c1.38-0.918,3.242-0.544,4.16,0.835
		c0.916,1.379,0.543,3.242-0.836,4.16L46.873,48.698C46.369,49.033,45.79,49.2,45.211,49.2z"/>
</g>
</svg>
