<?xml version="1.0" encoding="utf-8"?>
<!-- Generator: Adobe Illustrator 16.0.0, SVG Export Plug-In . SVG Version: 6.00 Build 0)  -->
<!DOCTYPE svg PUBLIC "-//W3C//DTD SVG 1.1//EN" "http://www.w3.org/Graphics/SVG/1.1/DTD/svg11.dtd">
<svg version="1.1" id="Layer_1" xmlns="http://www.w3.org/2000/svg" xmlns:xlink="http://www.w3.org/1999/xlink" x="0px" y="0px"
	 width="100px" height="100px" viewBox="0 0 100 100" enable-background="new 0 0 100 100" xml:space="preserve">
<g id="Captions">
</g>
<g id="Layer_7" display="none">
</g>
<g id="Your_Icon">
	<polygon fill="#FFFFFF" points="73.966,39.457 61.732,39.457 61.736,15.518 37.2,15.518 37.2,39.457 25.991,39.457 50.185,63.492 	
		"/>
	<polygon fill="#FFFFFF" points="73.986,60.495 73.986,72.49 26.013,72.49 26.013,60.495 14.018,60.495 14.018,84.482 
		85.982,84.482 85.982,60.495 	"/>
</g>
<g id="Layer_6" display="none">
	<path display="inline" d="M70.271,74.475c-2.271,0-4.111,1.84-4.111,4.108s1.841,4.106,4.111,4.106
		c2.267,0,4.107-1.838,4.107-4.106C74.38,76.312,72.538,74.475,70.271,74.475z"/>
	<circle display="inline" cx="35.34" cy="78.582" r="4.107"/>
	<polygon display="inline" points="32.285,70.301 32.285,70.363 73.208,70.363 73.208,66.369 35.72,66.369 34.197,58.973 
		73.611,58.973 85.936,28.15 27.871,28.15 25.651,17.31 25.418,17.312 25.418,17.31 14.064,17.31 14.064,21.421 22.36,21.421 	"/>
</g>
<g id="Layer_5" display="none">
	<polygon display="inline" points="75.986,26.014 75.986,14.018 69.988,14.018 69.988,26.014 69.988,33.008 75.986,33.008 	"/>
	<path display="inline" d="M77.982,26.014v6.994v1.998h-1.996h-5.998h-2v-1.998v-6.994H32.009v6.994v1.998H30.01h-5.997h-1.999
		v-1.998v-6.994h-7.996v59.968h71.964V26.014H77.982z M47.856,66.268c-0.495,1.689-1.168,3.039-2.019,4.049
		c-0.851,1.009-1.835,1.729-2.949,2.158c-1.115,0.433-2.309,0.646-3.579,0.646c-1.25,0-2.43-0.213-3.544-0.646
		c-1.116-0.43-2.096-1.149-2.933-2.158c-0.842-1.01-1.509-2.358-1.996-4.049c-0.495-1.69-0.742-3.799-0.742-6.315
		c0-2.445,0.247-4.5,0.742-6.168c0.487-1.668,1.154-3.007,1.996-4.014c0.837-1.008,1.816-1.727,2.933-2.16
		c1.114-0.432,2.294-0.648,3.544-0.648c1.271,0,2.464,0.217,3.579,0.648c1.114,0.434,2.099,1.152,2.949,2.16
		c0.85,1.007,1.523,2.346,2.019,4.014c0.488,1.668,0.735,3.723,0.735,6.168C48.592,62.469,48.345,64.576,47.856,66.268z
		 M65.609,72.654h-5.108V56.318h-6.334v-3.854c0.89,0.027,1.748-0.037,2.573-0.192c0.828-0.156,1.574-0.435,2.232-0.83
		c0.654-0.396,1.215-0.916,1.67-1.562c0.457-0.65,0.76-1.455,0.903-2.414h4.063V72.654L65.609,72.654z"/>
	<polygon display="inline" points="30.01,26.014 30.01,14.018 24.013,14.018 24.013,26.014 24.013,33.008 30.01,33.008 	"/>
	<path display="inline" d="M43.322,56.496c-0.088-0.643-0.209-1.287-0.36-1.922c-0.161-0.635-0.39-1.207-0.703-1.709
		c-0.312-0.502-0.708-0.914-1.189-1.227c-0.477-0.312-1.067-0.466-1.76-0.466c-0.699,0-1.28,0.154-1.745,0.466
		c-0.469,0.312-0.854,0.725-1.152,1.227c-0.299,0.502-0.534,1.074-0.703,1.709c-0.17,0.635-0.286,1.279-0.36,1.922
		c-0.069,0.652-0.112,1.279-0.122,1.891c-0.017,0.613-0.021,1.135-0.021,1.564c0,0.721,0.027,1.59,0.074,2.611
		c0.048,1.02,0.199,2.004,0.451,2.946c0.251,0.951,0.65,1.761,1.201,2.431c0.555,0.672,1.346,1.008,2.378,1.008
		c1.054,0,1.864-0.336,2.43-1.008c0.559-0.67,0.968-1.479,1.223-2.431c0.251-0.942,0.399-1.928,0.447-2.946
		c0.047-1.021,0.073-1.892,0.073-2.611c0-0.43-0.004-0.951-0.019-1.564C43.452,57.775,43.404,57.148,43.322,56.496z"/>
</g>
<g id="Layer_4" display="none">
	<path display="inline" d="M85.619,77.486L63.932,55.8c2.791-4.249,4.424-9.322,4.424-14.779c0-14.904-12.082-26.987-26.988-26.987
		c-14.903,0-26.985,12.083-26.985,26.987c0,14.901,12.082,26.985,26.985,26.985c5.099,0,9.849-1.438,13.915-3.895l21.856,21.854
		L85.619,77.486z M26.375,41.021c0-8.27,6.726-14.991,14.991-14.991c8.269,0,14.993,6.722,14.993,14.991
		c0,8.266-6.726,14.991-14.993,14.991C33.101,56.012,26.375,49.286,26.375,41.021z"/>
</g>
</svg>
