<?xml version="1.0" encoding="utf-8"?>
<!-- Generator: Adobe Illustrator 16.0.0, SVG Export Plug-In . SVG Version: 6.00 Build 0)  -->
<!DOCTYPE svg PUBLIC "-//W3C//DTD SVG 1.1//EN" "http://www.w3.org/Graphics/SVG/1.1/DTD/svg11.dtd">
<svg version="1.1" id="Layer_1" xmlns="http://www.w3.org/2000/svg" xmlns:xlink="http://www.w3.org/1999/xlink" x="0px" y="0px"
	 width="100px" height="100px" viewBox="0 0 100 100" enable-background="new 0 0 100 100" xml:space="preserve">
<g id="Captions">
</g>
<g id="Your_Icon">
	<g>
		<path fill="#FFFFFF" d="M87.346,47.638C87.781,48.583,88,49.528,88,50.401c0,0.8-0.219,1.818-0.654,2.69
			C87.127,53.527,74.837,76,51.783,76C28.73,76,16.439,53.527,16.222,53.092c-0.437-0.872-0.654-1.891-0.654-2.69
			c0-0.873,0.218-1.818,0.654-2.764C16.44,47.275,28.731,24.73,51.784,24.73C74.837,24.729,87.127,47.274,87.346,47.638z
			 M78.691,51.273c0.146-0.219,0.218-0.363,0.218-0.51c0-0.218-0.072-0.363-0.218-0.654c-3.854-4.945-12.437-16.508-26.908-16.508
			c-14.472,0-23.053,11.562-26.907,16.508c-0.146,0.291-0.219,0.437-0.219,0.654c0,0.146,0.073,0.291,0.219,0.51
			c3.854,5.019,12.436,16.509,26.907,16.509C66.256,67.782,74.837,56.292,78.691,51.273z M66.037,50.766
			c0-8.219-6.473-14.473-14.254-14.473s-14.254,6.254-14.254,14.473c0,8,6.473,14.473,14.254,14.473S66.037,58.766,66.037,50.766z
			 M59.348,50.766c0,4.217-3.637,7.635-7.563,7.635c-4,0-7.562-3.418-7.562-7.635c0-4.364,3.562-7.854,7.562-7.854
			C55.711,42.911,59.348,46.401,59.348,50.766z"/>
	</g>
</g>
</svg>
