<?xml version="1.0" encoding="utf-8"?>
<!-- Generator: Adobe Illustrator 16.0.0, SVG Export Plug-In . SVG Version: 6.00 Build 0)  -->
<!DOCTYPE svg PUBLIC "-//W3C//DTD SVG 1.1//EN" "http://www.w3.org/Graphics/SVG/1.1/DTD/svg11.dtd">
<svg version="1.1" id="Your_Icon" xmlns="http://www.w3.org/2000/svg" xmlns:xlink="http://www.w3.org/1999/xlink" x="0px" y="0px"
	 width="100px" height="96.743px" viewBox="0 0 100 96.743" enable-background="new 0 0 100 96.743" xml:space="preserve">
<g id="Your_Icon_2_">
	<rect x="56.945" y="10.375" fill="#FFFFFF" width="10.051" height="20.671"/>
	<path fill="#FFFFFF" d="M84.25,0H5.433C2.43,0,0,2.412,0,5.4v85.95c0,2.982,2.43,5.393,5.433,5.393h89.139
		c2.998,0,5.429-2.41,5.429-5.393V15.485L84.25,0z M19.608,10.796c0-2.647,2.43-4.809,5.433-4.809h49.93
		c2.991,0,5.428,2.161,5.428,4.809v19.75c0,2.647-2.437,4.809-5.428,4.809h-49.93c-3.003,0-5.433-2.162-5.433-4.809V10.796
		L19.608,10.796z M85.98,86.608H14.023V44.776H85.98V86.608z"/>
</g>
</svg>
