<?xml version="1.0" encoding="utf-8"?>
<!-- Generator: Adobe Illustrator 16.0.0, SVG Export Plug-In . SVG Version: 6.00 Build 0)  -->
<!DOCTYPE svg PUBLIC "-//W3C//DTD SVG 1.1//EN" "http://www.w3.org/Graphics/SVG/1.1/DTD/svg11.dtd">
<svg version="1.1" id="Layer_1" xmlns="http://www.w3.org/2000/svg" xmlns:xlink="http://www.w3.org/1999/xlink" x="0px" y="0px"
	 width="100px" height="100px" viewBox="0 0 100 100" enable-background="new 0 0 100 100" xml:space="preserve">
<path fill="#FFFFFF" d="M96.275,57.496V42.187h-8.381c-7.543,0-10.899-8.439-5.666-13.673l5.935-5.937l-10.82-10.82l-5.936,5.935
	c-5.166,5.167-13.666,1.203-13.666-5.667V3.626H42.436v8.397c0,6.603-8.818,10.486-13.659,5.663l-5.951-5.951l-10.82,10.821
	l5.949,5.949c5.167,5.167,1.604,13.651-5.666,13.651H3.875v15.31h8.41c7.81,0,11.621,7.688,5.654,13.655l-5.953,5.954l10.821,10.821
	l5.946-5.946c4.836-4.836,13.655-1.458,13.655,5.675v8.402h15.306l0.001-8.394c0-7.411,7.971-11.356,13.67-5.657l5.94,5.939
	l10.819-10.822l-5.933-5.931c-5.371-5.371-2.396-13.67,5.677-13.67h8.387V57.496z M50.089,68.146
	c-10.118,0-18.318-8.199-18.318-18.318c0-10.121,8.201-18.322,18.318-18.322c10.119,0,18.319,8.201,18.319,18.322
	C68.408,59.947,60.208,68.146,50.089,68.146z"/>
</svg>
